<?xml version="1.0" encoding="UTF-8" standalone="no"?>
<!-- Created with Inkscape (http://www.inkscape.org/) -->

<svg
   xmlns:dc="http://purl.org/dc/elements/1.1/"
   xmlns:cc="http://creativecommons.org/ns#"
   xmlns:rdf="http://www.w3.org/1999/02/22-rdf-syntax-ns#"
   xmlns:svg="http://www.w3.org/2000/svg"
   xmlns="http://www.w3.org/2000/svg"
   xmlns:sodipodi="http://sodipodi.sourceforge.net/DTD/sodipodi-0.dtd"
   xmlns:inkscape="http://www.inkscape.org/namespaces/inkscape"
   id="svg2"
   version="1.1"
   inkscape:version="0.48.4 r9939"
   width="35"
   height="35"
   xml:space="preserve"
   sodipodi:docname="calendar.svg"
   inkscape:export-filename="/home/bogdan/Desktop/OneExpense/calendar.png"
   inkscape:export-xdpi="90"
   inkscape:export-ydpi="90"><metadata
     id="metadata8"><rdf:RDF><cc:Work
         rdf:about=""><dc:format>image/svg+xml</dc:format><dc:type
           rdf:resource="http://purl.org/dc/dcmitype/StillImage" /><dc:title></dc:title></cc:Work></rdf:RDF></metadata><defs
     id="defs6"><clipPath
       clipPathUnits="userSpaceOnUse"
       id="clipPath1742"><path
         d="m 2965.84,14542.7 -99.79,0 0,32.3 99.79,0 0,-32.3 m 0,67.6 -99.79,0 0,32.2 99.79,0 0,-32.2"
         id="path1744"
         inkscape:connector-curvature="0" /></clipPath><clipPath
       clipPathUnits="userSpaceOnUse"
       id="clipPath1748"><path
         d="m 2866.05,14642.5 99.79,0 0,-99.8 -99.79,0 0,99.8 z"
         id="path1750"
         inkscape:connector-curvature="0" /></clipPath><clipPath
       clipPathUnits="userSpaceOnUse"
       id="clipPath1760"><path
         d="m 2866.05,14575 99.7969,0 0,35.301 -99.7969,0 0,-35.301 z"
         id="path1762"
         inkscape:connector-curvature="0" /></clipPath><clipPath
       clipPathUnits="userSpaceOnUse"
       id="clipPath1772"><path
         d="m 2866.05,14575 99.7969,0 0,35.301 -99.7969,0 0,-35.301 z"
         id="path1774"
         inkscape:connector-curvature="0" /></clipPath><clipPath
       clipPathUnits="userSpaceOnUse"
       id="clipPath1782"><path
         d="m 2904.06,14576 2.4922,0 0,3.324 -2.4922,0 0,-3.324 z"
         clip-rule="evenodd"
         id="path1784"
         inkscape:connector-curvature="0" /></clipPath><clipPath
       clipPathUnits="userSpaceOnUse"
       id="clipPath1792"><path
         d="m 2906.55,14576 0.832,0 0,3.324 -0.832,0 0,-3.324 z"
         clip-rule="evenodd"
         id="path1794"
         inkscape:connector-curvature="0" /></clipPath><clipPath
       clipPathUnits="userSpaceOnUse"
       id="clipPath1802"><path
         d="m 2917.37,14576 1.6641,0 0,3.324 -1.6641,0 0,-3.324 z"
         clip-rule="evenodd"
         id="path1804"
         inkscape:connector-curvature="0" /></clipPath><clipPath
       clipPathUnits="userSpaceOnUse"
       id="clipPath1812"><path
         d="m 2919.03,14576 1.6641,0 0,3.324 -1.6641,0 0,-3.324 z"
         clip-rule="evenodd"
         id="path1814"
         inkscape:connector-curvature="0" /></clipPath><clipPath
       clipPathUnits="userSpaceOnUse"
       id="clipPath1822"><path
         d="m 2866.05,14575 99.7969,0 0,35.301 -99.7969,0 0,-35.301 z"
         id="path1824"
         inkscape:connector-curvature="0" /></clipPath><clipPath
       clipPathUnits="userSpaceOnUse"
       id="clipPath1836"><path
         d="m 10.2266,14516.6 335.938,0 0,149.672 -335.938,0 0,-149.672 z"
         id="path1838"
         inkscape:connector-curvature="0" /></clipPath><clipPath
       id="clipPath1836-8"
       clipPathUnits="userSpaceOnUse"><path
         inkscape:connector-curvature="0"
         id="path1838-6"
         d="m 10.2266,14516.6 335.938,0 0,149.672 -335.938,0 0,-149.672 z" /></clipPath><clipPath
       id="clipPath1822-1"
       clipPathUnits="userSpaceOnUse"><path
         inkscape:connector-curvature="0"
         id="path1824-8"
         d="m 2866.05,14575 99.7969,0 0,35.301 -99.7969,0 0,-35.301 z" /></clipPath><clipPath
       id="clipPath1812-1"
       clipPathUnits="userSpaceOnUse"><path
         inkscape:connector-curvature="0"
         id="path1814-5"
         clip-rule="evenodd"
         d="m 2919.03,14576 1.6641,0 0,3.324 -1.6641,0 0,-3.324 z" /></clipPath><clipPath
       id="clipPath1802-9"
       clipPathUnits="userSpaceOnUse"><path
         inkscape:connector-curvature="0"
         id="path1804-7"
         clip-rule="evenodd"
         d="m 2917.37,14576 1.6641,0 0,3.324 -1.6641,0 0,-3.324 z" /></clipPath><clipPath
       id="clipPath1792-9"
       clipPathUnits="userSpaceOnUse"><path
         inkscape:connector-curvature="0"
         id="path1794-7"
         clip-rule="evenodd"
         d="m 2906.55,14576 0.832,0 0,3.324 -0.832,0 0,-3.324 z" /></clipPath><clipPath
       id="clipPath1782-3"
       clipPathUnits="userSpaceOnUse"><path
         inkscape:connector-curvature="0"
         id="path1784-1"
         clip-rule="evenodd"
         d="m 2904.06,14576 2.4922,0 0,3.324 -2.4922,0 0,-3.324 z" /></clipPath><clipPath
       id="clipPath1772-4"
       clipPathUnits="userSpaceOnUse"><path
         inkscape:connector-curvature="0"
         id="path1774-7"
         d="m 2866.05,14575 99.7969,0 0,35.301 -99.7969,0 0,-35.301 z" /></clipPath><clipPath
       id="clipPath1760-5"
       clipPathUnits="userSpaceOnUse"><path
         inkscape:connector-curvature="0"
         id="path1762-9"
         d="m 2866.05,14575 99.7969,0 0,35.301 -99.7969,0 0,-35.301 z" /></clipPath><clipPath
       id="clipPath1748-2"
       clipPathUnits="userSpaceOnUse"><path
         inkscape:connector-curvature="0"
         id="path1750-1"
         d="m 2866.05,14642.5 99.79,0 0,-99.8 -99.79,0 0,99.8 z" /></clipPath><clipPath
       id="clipPath1742-5"
       clipPathUnits="userSpaceOnUse"><path
         inkscape:connector-curvature="0"
         id="path1744-4"
         d="m 2965.84,14542.7 -99.79,0 0,32.3 99.79,0 0,-32.3 m 0,67.6 -99.79,0 0,32.2 99.79,0 0,-32.2" /></clipPath><clipPath
       clipPathUnits="userSpaceOnUse"
       id="clipPath1742-9"><path
         d="m 2965.84,14542.7 -99.79,0 0,32.3 99.79,0 0,-32.3 m 0,67.6 -99.79,0 0,32.2 99.79,0 0,-32.2"
         id="path1744-7"
         inkscape:connector-curvature="0" /></clipPath><clipPath
       clipPathUnits="userSpaceOnUse"
       id="clipPath1748-3"><path
         d="m 2866.05,14642.5 99.79,0 0,-99.8 -99.79,0 0,99.8 z"
         id="path1750-19"
         inkscape:connector-curvature="0" /></clipPath><clipPath
       clipPathUnits="userSpaceOnUse"
       id="clipPath1760-4"><path
         d="m 2866.05,14575 99.7969,0 0,35.301 -99.7969,0 0,-35.301 z"
         id="path1762-4"
         inkscape:connector-curvature="0" /></clipPath><clipPath
       clipPathUnits="userSpaceOnUse"
       id="clipPath1772-43"><path
         d="m 2866.05,14575 99.7969,0 0,35.301 -99.7969,0 0,-35.301 z"
         id="path1774-2"
         inkscape:connector-curvature="0" /></clipPath><clipPath
       clipPathUnits="userSpaceOnUse"
       id="clipPath1782-8"><path
         d="m 2904.06,14576 2.4922,0 0,3.324 -2.4922,0 0,-3.324 z"
         clip-rule="evenodd"
         id="path1784-19"
         inkscape:connector-curvature="0" /></clipPath><clipPath
       clipPathUnits="userSpaceOnUse"
       id="clipPath1792-97"><path
         d="m 2906.55,14576 0.832,0 0,3.324 -0.832,0 0,-3.324 z"
         clip-rule="evenodd"
         id="path1794-8"
         inkscape:connector-curvature="0" /></clipPath><clipPath
       clipPathUnits="userSpaceOnUse"
       id="clipPath1802-91"><path
         d="m 2917.37,14576 1.6641,0 0,3.324 -1.6641,0 0,-3.324 z"
         clip-rule="evenodd"
         id="path1804-8"
         inkscape:connector-curvature="0" /></clipPath><clipPath
       clipPathUnits="userSpaceOnUse"
       id="clipPath1812-6"><path
         d="m 2919.03,14576 1.6641,0 0,3.324 -1.6641,0 0,-3.324 z"
         clip-rule="evenodd"
         id="path1814-59"
         inkscape:connector-curvature="0" /></clipPath><clipPath
       clipPathUnits="userSpaceOnUse"
       id="clipPath1822-4"><path
         d="m 2866.05,14575 99.7969,0 0,35.301 -99.7969,0 0,-35.301 z"
         id="path1824-5"
         inkscape:connector-curvature="0" /></clipPath><clipPath
       clipPathUnits="userSpaceOnUse"
       id="clipPath1836-5"><path
         d="m 10.2266,14516.6 335.938,0 0,149.672 -335.938,0 0,-149.672 z"
         id="path1838-0"
         inkscape:connector-curvature="0" /></clipPath><clipPath
       id="clipPath1836-8-4"
       clipPathUnits="userSpaceOnUse"><path
         inkscape:connector-curvature="0"
         id="path1838-6-6"
         d="m 10.2266,14516.6 335.938,0 0,149.672 -335.938,0 0,-149.672 z" /></clipPath><clipPath
       id="clipPath1822-1-6"
       clipPathUnits="userSpaceOnUse"><path
         inkscape:connector-curvature="0"
         id="path1824-8-3"
         d="m 2866.05,14575 99.7969,0 0,35.301 -99.7969,0 0,-35.301 z" /></clipPath><clipPath
       id="clipPath1812-1-1"
       clipPathUnits="userSpaceOnUse"><path
         inkscape:connector-curvature="0"
         id="path1814-5-1"
         clip-rule="evenodd"
         d="m 2919.03,14576 1.6641,0 0,3.324 -1.6641,0 0,-3.324 z" /></clipPath><clipPath
       id="clipPath1802-9-2"
       clipPathUnits="userSpaceOnUse"><path
         inkscape:connector-curvature="0"
         id="path1804-7-5"
         clip-rule="evenodd"
         d="m 2917.37,14576 1.6641,0 0,3.324 -1.6641,0 0,-3.324 z" /></clipPath><clipPath
       id="clipPath1792-9-0"
       clipPathUnits="userSpaceOnUse"><path
         inkscape:connector-curvature="0"
         id="path1794-7-8"
         clip-rule="evenodd"
         d="m 2906.55,14576 0.832,0 0,3.324 -0.832,0 0,-3.324 z" /></clipPath><clipPath
       id="clipPath1782-3-0"
       clipPathUnits="userSpaceOnUse"><path
         inkscape:connector-curvature="0"
         id="path1784-1-4"
         clip-rule="evenodd"
         d="m 2904.06,14576 2.4922,0 0,3.324 -2.4922,0 0,-3.324 z" /></clipPath><clipPath
       id="clipPath1772-4-2"
       clipPathUnits="userSpaceOnUse"><path
         inkscape:connector-curvature="0"
         id="path1774-7-4"
         d="m 2866.05,14575 99.7969,0 0,35.301 -99.7969,0 0,-35.301 z" /></clipPath><clipPath
       id="clipPath1760-5-3"
       clipPathUnits="userSpaceOnUse"><path
         inkscape:connector-curvature="0"
         id="path1762-9-7"
         d="m 2866.05,14575 99.7969,0 0,35.301 -99.7969,0 0,-35.301 z" /></clipPath><clipPath
       id="clipPath1748-2-4"
       clipPathUnits="userSpaceOnUse"><path
         inkscape:connector-curvature="0"
         id="path1750-1-5"
         d="m 2866.05,14642.5 99.79,0 0,-99.8 -99.79,0 0,99.8 z" /></clipPath><clipPath
       id="clipPath1742-5-7"
       clipPathUnits="userSpaceOnUse"><path
         inkscape:connector-curvature="0"
         id="path1744-4-4"
         d="m 2965.84,14542.7 -99.79,0 0,32.3 99.79,0 0,-32.3 m 0,67.6 -99.79,0 0,32.2 99.79,0 0,-32.2" /></clipPath><clipPath
       id="clipPath1836-7"
       clipPathUnits="userSpaceOnUse"><path
         inkscape:connector-curvature="0"
         id="path1838-8"
         d="m 10.2266,14516.6 335.938,0 0,149.672 -335.938,0 0,-149.672 z" /></clipPath><clipPath
       id="clipPath1822-9"
       clipPathUnits="userSpaceOnUse"><path
         inkscape:connector-curvature="0"
         id="path1824-2"
         d="m 2866.05,14575 99.7969,0 0,35.301 -99.7969,0 0,-35.301 z" /></clipPath><clipPath
       id="clipPath1812-8"
       clipPathUnits="userSpaceOnUse"><path
         inkscape:connector-curvature="0"
         id="path1814-0"
         clip-rule="evenodd"
         d="m 2919.03,14576 1.6641,0 0,3.324 -1.6641,0 0,-3.324 z" /></clipPath><clipPath
       id="clipPath1802-94"
       clipPathUnits="userSpaceOnUse"><path
         inkscape:connector-curvature="0"
         id="path1804-5"
         clip-rule="evenodd"
         d="m 2917.37,14576 1.6641,0 0,3.324 -1.6641,0 0,-3.324 z" /></clipPath><clipPath
       id="clipPath1792-0"
       clipPathUnits="userSpaceOnUse"><path
         inkscape:connector-curvature="0"
         id="path1794-72"
         clip-rule="evenodd"
         d="m 2906.55,14576 0.832,0 0,3.324 -0.832,0 0,-3.324 z" /></clipPath><clipPath
       id="clipPath1782-0"
       clipPathUnits="userSpaceOnUse"><path
         inkscape:connector-curvature="0"
         id="path1784-3"
         clip-rule="evenodd"
         d="m 2904.06,14576 2.4922,0 0,3.324 -2.4922,0 0,-3.324 z" /></clipPath><clipPath
       id="clipPath1772-42"
       clipPathUnits="userSpaceOnUse"><path
         inkscape:connector-curvature="0"
         id="path1774-79"
         d="m 2866.05,14575 99.7969,0 0,35.301 -99.7969,0 0,-35.301 z" /></clipPath><clipPath
       id="clipPath1760-46"
       clipPathUnits="userSpaceOnUse"><path
         inkscape:connector-curvature="0"
         id="path1762-8"
         d="m 2866.05,14575 99.7969,0 0,35.301 -99.7969,0 0,-35.301 z" /></clipPath><clipPath
       id="clipPath1748-1"
       clipPathUnits="userSpaceOnUse"><path
         inkscape:connector-curvature="0"
         id="path1750-2"
         d="m 2866.05,14642.5 99.79,0 0,-99.8 -99.79,0 0,99.8 z" /></clipPath><clipPath
       id="clipPath1742-7"
       clipPathUnits="userSpaceOnUse"><path
         inkscape:connector-curvature="0"
         id="path1744-9"
         d="m 2965.84,14542.7 -99.79,0 0,32.3 99.79,0 0,-32.3 m 0,67.6 -99.79,0 0,32.2 99.79,0 0,-32.2" /></clipPath></defs><sodipodi:namedview
     pagecolor="#ffffff"
     bordercolor="#666666"
     borderopacity="1"
     objecttolerance="10"
     gridtolerance="10"
     guidetolerance="10"
     inkscape:pageopacity="0"
     inkscape:pageshadow="2"
     inkscape:window-width="1366"
     inkscape:window-height="725"
     id="namedview4"
     showgrid="false"
     showguides="true"
     inkscape:guide-bbox="true"
     inkscape:zoom="1"
     inkscape:cx="-52.589034"
     inkscape:cy="6.2319369"
     inkscape:window-x="0"
     inkscape:window-y="25"
     inkscape:window-maximized="1"
     inkscape:current-layer="g10"
     inkscape:showpageshadow="false" /><g
     id="g10"
     inkscape:groupmode="layer"
     inkscape:label="ink_ext_XXXXXX"
     transform="matrix(1.25,0,0,-1.25,0,34.99993)"><path
       style="fill:#ffffff;fill-opacity:1;stroke:none"
       d="m 6.4,27.999944 c -0.8864,0 -1.6,-0.742918 -1.6,-1.660377 l 0,-3.924529 c 0,-0.917459 0.7136,-1.660377 1.6,-1.660377 0.8864,0 1.6,0.742918 1.6,1.660377 l 0,3.924529 c 0,0.917459 -0.7136,1.660377 -1.6,1.660377 z m 15.2,0 c -0.8864,0 -1.6,-0.742918 -1.6,-1.660377 l 0,-3.924529 c 0,-0.917459 0.7136,-1.660377 1.6,-1.660377 0.8864,0 1.6,0.742918 1.6,1.660377 l 0,3.924529 c 0,0.917459 -0.7136,1.660377 -1.6,1.660377 z M 2.675,24.150887 C 1.19582,24.150887 0,22.947547 0,21.459063 l 0,-3.471698 28,0 0,3.471698 c 0,1.488484 -1.19582,2.691824 -2.675,2.691824 l -0.95,0 0,-1.761006 c 0,-1.605555 -1.2488,-2.893082 -2.8,-2.893082 -1.5512,0 -2.8,1.287527 -2.8,2.893082 l 0,1.761006 -9.55,0 0,-1.685534 c 0,-1.605555 -1.2488,-2.893082 -2.8,-2.893082 -1.5512,0 -2.8,1.287527 -2.8,2.893082 l 0,1.685534 -0.95,0 z M 0,16.779818 0,2.6917679 C 0,1.2032849 1.19582,-5.6e-5 2.675,-5.6e-5 l 22.65,0 c 1.47918,0 2.675,1.2033409 2.675,2.6918239 l 0,14.0880501 -28,0 z m 18.399999,-1.786163 c 1.221087,-1.2e-5 2.183402,-0.512438 2.875001,-1.534592 0.691584,-1.011299 1.024991,-2.449243 1.025,-4.3522008 -9e-6,-1.9029687 -0.333416,-3.3803544 -1.025,-4.4025157 -0.691599,-1.0112901 -1.653914,-1.5094339 -2.875001,-1.5094339 -1.221095,0 -2.183409,0.4981438 -2.874999,1.5094339 -0.691593,1.0221613 -1.025001,2.499547 -1.025,4.4025157 -10e-7,0.9460388 0.0771,1.7619948 0.25,2.4905658 0.183703,0.739429 0.440008,1.361418 0.775,1.861635 0.345793,0.500198 0.749528,0.896244 1.225,1.157233 0.486272,0.260966 1.044852,0.377347 1.649999,0.377359 z M 9.6,14.742082 l 1.375,0 0,-11.2955971 -1.95,0 0,8.6540881 C 8.73323,11.872209 8.368047,11.638801 7.925,11.421328 7.481946,11.203838 7.06063,11.034381 6.65,10.893026 l -0.6,1.509434 c 0.626753,0.250095 1.248242,0.564498 1.875,0.955975 0.637557,0.391457 1.18872,0.850807 1.675,1.383647 z m 8.799999,-1.459119 C 18.043393,13.282953 17.723537,13.173391 17.475,12.955919 17.237261,12.738428 17.051282,12.456 16.899999,12.075416 16.759517,11.705689 16.664834,11.253157 16.6,10.742082 16.54597,10.230994 16.52499,9.6940562 16.525,9.1068622 c -3e-6,-0.587206 0.02097,-1.1492999 0.075,-1.6603773 0.06483,-0.5110855 0.159517,-0.9527435 0.299999,-1.3333334 0.151283,-0.3697211 0.337262,-0.663023 0.575001,-0.8805031 0.248537,-0.2174833 0.568393,-0.3270456 0.924999,-0.327044 0.356598,-1.6e-6 0.637261,0.1095607 0.875,0.327044 0.237729,0.2174801 0.434516,0.510782 0.575001,0.8805031 0.151279,0.3805899 0.260157,0.8222479 0.325,1.3333334 0.06483,0.5110774 0.09999,1.0731713 0.1,1.6603773 -7e-6,0.587194 -0.03517,1.1241318 -0.1,1.6352198 -0.06484,0.511075 -0.173721,0.963607 -0.325,1.333334 -0.140485,0.380584 -0.337272,0.663012 -0.575001,0.880503 -0.237739,0.217472 -0.518402,0.327034 -0.875,0.327044 z"
       id="rect3169"
       inkscape:connector-curvature="0" /></g></svg>