<?xml version="1.0" encoding="UTF-8" standalone="no"?>
<!-- Created with Inkscape (http://www.inkscape.org/) -->

<svg
   xmlns:dc="http://purl.org/dc/elements/1.1/"
   xmlns:cc="http://creativecommons.org/ns#"
   xmlns:rdf="http://www.w3.org/1999/02/22-rdf-syntax-ns#"
   xmlns:svg="http://www.w3.org/2000/svg"
   xmlns="http://www.w3.org/2000/svg"
   xmlns:sodipodi="http://sodipodi.sourceforge.net/DTD/sodipodi-0.dtd"
   xmlns:inkscape="http://www.inkscape.org/namespaces/inkscape"
   id="svg2"
   version="1.1"
   inkscape:version="0.48.4 r9939"
   width="64"
   height="64"
   xml:space="preserve"
   sodipodi:docname="favicon.svg"
   inkscape:export-filename="/home/bogdan/Desktop/favicon.png"
   inkscape:export-xdpi="90"
   inkscape:export-ydpi="90"><metadata
     id="metadata8"><rdf:RDF><cc:Work
         rdf:about=""><dc:format>image/svg+xml</dc:format><dc:type
           rdf:resource="http://purl.org/dc/dcmitype/StillImage" /><dc:title></dc:title></cc:Work></rdf:RDF></metadata><defs
     id="defs6"><clipPath
       clipPathUnits="userSpaceOnUse"
       id="clipPath1742"><path
         d="m 2965.84,14542.7 -99.79,0 0,32.3 99.79,0 0,-32.3 m 0,67.6 -99.79,0 0,32.2 99.79,0 0,-32.2"
         id="path1744"
         inkscape:connector-curvature="0" /></clipPath><clipPath
       clipPathUnits="userSpaceOnUse"
       id="clipPath1748"><path
         d="m 2866.05,14642.5 99.79,0 0,-99.8 -99.79,0 0,99.8 z"
         id="path1750"
         inkscape:connector-curvature="0" /></clipPath><clipPath
       clipPathUnits="userSpaceOnUse"
       id="clipPath1760"><path
         d="m 2866.05,14575 99.7969,0 0,35.301 -99.7969,0 0,-35.301 z"
         id="path1762"
         inkscape:connector-curvature="0" /></clipPath><clipPath
       clipPathUnits="userSpaceOnUse"
       id="clipPath1772"><path
         d="m 2866.05,14575 99.7969,0 0,35.301 -99.7969,0 0,-35.301 z"
         id="path1774"
         inkscape:connector-curvature="0" /></clipPath><clipPath
       clipPathUnits="userSpaceOnUse"
       id="clipPath1782"><path
         d="m 2904.06,14576 2.4922,0 0,3.324 -2.4922,0 0,-3.324 z"
         clip-rule="evenodd"
         id="path1784"
         inkscape:connector-curvature="0" /></clipPath><clipPath
       clipPathUnits="userSpaceOnUse"
       id="clipPath1792"><path
         d="m 2906.55,14576 0.832,0 0,3.324 -0.832,0 0,-3.324 z"
         clip-rule="evenodd"
         id="path1794"
         inkscape:connector-curvature="0" /></clipPath><clipPath
       clipPathUnits="userSpaceOnUse"
       id="clipPath1802"><path
         d="m 2917.37,14576 1.6641,0 0,3.324 -1.6641,0 0,-3.324 z"
         clip-rule="evenodd"
         id="path1804"
         inkscape:connector-curvature="0" /></clipPath><clipPath
       clipPathUnits="userSpaceOnUse"
       id="clipPath1812"><path
         d="m 2919.03,14576 1.6641,0 0,3.324 -1.6641,0 0,-3.324 z"
         clip-rule="evenodd"
         id="path1814"
         inkscape:connector-curvature="0" /></clipPath><clipPath
       clipPathUnits="userSpaceOnUse"
       id="clipPath1822"><path
         d="m 2866.05,14575 99.7969,0 0,35.301 -99.7969,0 0,-35.301 z"
         id="path1824"
         inkscape:connector-curvature="0" /></clipPath><clipPath
       clipPathUnits="userSpaceOnUse"
       id="clipPath1836"><path
         d="m 10.2266,14516.6 335.938,0 0,149.672 -335.938,0 0,-149.672 z"
         id="path1838"
         inkscape:connector-curvature="0" /></clipPath></defs><sodipodi:namedview
     pagecolor="#ffffff"
     bordercolor="#666666"
     borderopacity="1"
     objecttolerance="10"
     gridtolerance="10"
     guidetolerance="10"
     inkscape:pageopacity="0"
     inkscape:pageshadow="2"
     inkscape:window-width="1366"
     inkscape:window-height="725"
     id="namedview4"
     showgrid="false"
     showguides="true"
     inkscape:guide-bbox="true"
     inkscape:zoom="1"
     inkscape:cx="26.030368"
     inkscape:cy="27.334096"
     inkscape:window-x="0"
     inkscape:window-y="25"
     inkscape:window-maximized="1"
     inkscape:current-layer="g10" /><g
     id="g10"
     inkscape:groupmode="layer"
     inkscape:label="ink_ext_XXXXXX"
     transform="matrix(1.25,0,0,-1.25,0,63.99993)"><rect
       style="fill:#800000;fill-opacity:1;stroke:none"
       id="rect3083"
       width="51.200001"
       height="51.200001"
       x="0"
       y="-51.199944"
       transform="scale(1,-1)" /><g
       id="g6706"
       transform="matrix(2.3156087,0,0,2.3734988,-161.91454,-1128.1547)"><path
         inkscape:connector-curvature="0"
         id="rect5901"
         d="m 69.9231,496.88447 0,-21.57153 22.110817,0 0,21.57153 -22.110817,0 z m 1.801752,-1.77487 18.48982,0 0,-18.02179 -18.48982,0 0,18.02179 z"
         style="fill:#ffffff;fill-opacity:1;stroke:none" /><g
         style="fill:#ffffff"
         transform="matrix(0.713577,0,0,0.713577,59.754555,78.31625)"
         id="g5929"><path
           inkscape:connector-curvature="0"
           id="path5911"
           style="font-size:11.22848988px;font-style:normal;font-variant:normal;font-weight:bold;font-stretch:normal;line-height:125%;letter-spacing:0px;word-spacing:0px;fill:#ffffff;fill-opacity:1;stroke:none;font-family:sans;-inkscape-font-specification:sans"
           d="m 22.56026,575.06289 c -0.785929,-2e-5 -1.395466,-0.28319 -1.828612,-0.84954 -0.433155,-0.56636 -0.649731,-1.36361 -0.649728,-2.39175 -3e-6,-1.02379 0.216573,-1.81887 0.649728,-2.38522 0.433146,-0.56636 1.042683,-0.84953 1.828612,-0.84953 0.790383,0 1.402154,0.28317 1.835311,0.84953 0.433143,0.56635 0.649719,1.36143 0.649728,2.38522 -9e-6,1.02814 -0.216585,1.82539 -0.649728,2.39175 -0.433157,0.56635 -1.044928,0.84952 -1.835311,0.84954 m 0,1.82321 c 1.607565,-1e-5 2.866828,-0.44874 3.777795,-1.34618 0.910946,-0.89746 1.366424,-2.13689 1.366436,-3.71832 -1.2e-5,-1.57709 -0.45549,-2.81434 -1.366436,-3.71178 -0.910967,-0.89746 -2.17023,-1.34619 -3.777795,-1.34619 -1.603111,0 -2.862374,0.44873 -3.777793,1.34619 -0.910959,0.89744 -1.366438,2.13469 -1.366437,3.71178 -10e-7,1.58143 0.455478,2.82086 1.366437,3.71832 0.915419,0.89744 2.174682,1.34617 3.777793,1.34618" /><g
           style="fill:#ffffff"
           id="g5924"
           transform="matrix(1.2459223,0,0,1.2459223,-10.674944,-133.15268)"><path
             style="font-size:11.22848988px;font-style:normal;font-variant:normal;font-weight:bold;font-stretch:normal;line-height:125%;letter-spacing:0px;word-spacing:0px;fill:#ffffff;fill-opacity:1;stroke:none;font-family:sans;-inkscape-font-specification:sans"
             d="m 31.325641,569.75945 0,-7.84453 1.985646,0 0,5.38115 2.917184,-5.38115 c 2.038805,0 3.936141,0 6.054995,0 l 0,1.53064 -3.652608,0 0,1.79372 3.30941,0 0,1.53064 -3.30941,0 0,1.45889 3.530038,0 0,1.53064 c -1.863076,0 -3.726151,0 -5.589227,0 l 0,-5.38116 -2.917184,5.38116 z"
             id="path5913"
             inkscape:connector-curvature="0"
             sodipodi:nodetypes="ccccccccccccccccccc" /></g></g></g></g></svg>