<?xml version="1.0" encoding="UTF-8" standalone="no"?>
<!-- Created with Inkscape (http://www.inkscape.org/) -->

<svg
   xmlns:dc="http://purl.org/dc/elements/1.1/"
   xmlns:cc="http://creativecommons.org/ns#"
   xmlns:rdf="http://www.w3.org/1999/02/22-rdf-syntax-ns#"
   xmlns:svg="http://www.w3.org/2000/svg"
   xmlns="http://www.w3.org/2000/svg"
   xmlns:sodipodi="http://sodipodi.sourceforge.net/DTD/sodipodi-0.dtd"
   xmlns:inkscape="http://www.inkscape.org/namespaces/inkscape"
   id="svg2"
   version="1.1"
   inkscape:version="0.48.4 r9939"
   width="35"
   height="35"
   xml:space="preserve"
   sodipodi:docname="trash.svg"
   inkscape:export-filename="/home/bogdan/Desktop/OneExpense/trash.png"
   inkscape:export-xdpi="90"
   inkscape:export-ydpi="90"><metadata
     id="metadata8"><rdf:RDF><cc:Work
         rdf:about=""><dc:format>image/svg+xml</dc:format><dc:type
           rdf:resource="http://purl.org/dc/dcmitype/StillImage" /><dc:title></dc:title></cc:Work></rdf:RDF></metadata><defs
     id="defs6"><clipPath
       clipPathUnits="userSpaceOnUse"
       id="clipPath1742"><path
         d="m 2965.84,14542.7 -99.79,0 0,32.3 99.79,0 0,-32.3 m 0,67.6 -99.79,0 0,32.2 99.79,0 0,-32.2"
         id="path1744"
         inkscape:connector-curvature="0" /></clipPath><clipPath
       clipPathUnits="userSpaceOnUse"
       id="clipPath1748"><path
         d="m 2866.05,14642.5 99.79,0 0,-99.8 -99.79,0 0,99.8 z"
         id="path1750"
         inkscape:connector-curvature="0" /></clipPath><clipPath
       clipPathUnits="userSpaceOnUse"
       id="clipPath1760"><path
         d="m 2866.05,14575 99.7969,0 0,35.301 -99.7969,0 0,-35.301 z"
         id="path1762"
         inkscape:connector-curvature="0" /></clipPath><clipPath
       clipPathUnits="userSpaceOnUse"
       id="clipPath1772"><path
         d="m 2866.05,14575 99.7969,0 0,35.301 -99.7969,0 0,-35.301 z"
         id="path1774"
         inkscape:connector-curvature="0" /></clipPath><clipPath
       clipPathUnits="userSpaceOnUse"
       id="clipPath1782"><path
         d="m 2904.06,14576 2.4922,0 0,3.324 -2.4922,0 0,-3.324 z"
         clip-rule="evenodd"
         id="path1784"
         inkscape:connector-curvature="0" /></clipPath><clipPath
       clipPathUnits="userSpaceOnUse"
       id="clipPath1792"><path
         d="m 2906.55,14576 0.832,0 0,3.324 -0.832,0 0,-3.324 z"
         clip-rule="evenodd"
         id="path1794"
         inkscape:connector-curvature="0" /></clipPath><clipPath
       clipPathUnits="userSpaceOnUse"
       id="clipPath1802"><path
         d="m 2917.37,14576 1.6641,0 0,3.324 -1.6641,0 0,-3.324 z"
         clip-rule="evenodd"
         id="path1804"
         inkscape:connector-curvature="0" /></clipPath><clipPath
       clipPathUnits="userSpaceOnUse"
       id="clipPath1812"><path
         d="m 2919.03,14576 1.6641,0 0,3.324 -1.6641,0 0,-3.324 z"
         clip-rule="evenodd"
         id="path1814"
         inkscape:connector-curvature="0" /></clipPath><clipPath
       clipPathUnits="userSpaceOnUse"
       id="clipPath1822"><path
         d="m 2866.05,14575 99.7969,0 0,35.301 -99.7969,0 0,-35.301 z"
         id="path1824"
         inkscape:connector-curvature="0" /></clipPath><clipPath
       clipPathUnits="userSpaceOnUse"
       id="clipPath1836"><path
         d="m 10.2266,14516.6 335.938,0 0,149.672 -335.938,0 0,-149.672 z"
         id="path1838"
         inkscape:connector-curvature="0" /></clipPath><clipPath
       id="clipPath1836-8"
       clipPathUnits="userSpaceOnUse"><path
         inkscape:connector-curvature="0"
         id="path1838-6"
         d="m 10.2266,14516.6 335.938,0 0,149.672 -335.938,0 0,-149.672 z" /></clipPath><clipPath
       id="clipPath1822-1"
       clipPathUnits="userSpaceOnUse"><path
         inkscape:connector-curvature="0"
         id="path1824-8"
         d="m 2866.05,14575 99.7969,0 0,35.301 -99.7969,0 0,-35.301 z" /></clipPath><clipPath
       id="clipPath1812-1"
       clipPathUnits="userSpaceOnUse"><path
         inkscape:connector-curvature="0"
         id="path1814-5"
         clip-rule="evenodd"
         d="m 2919.03,14576 1.6641,0 0,3.324 -1.6641,0 0,-3.324 z" /></clipPath><clipPath
       id="clipPath1802-9"
       clipPathUnits="userSpaceOnUse"><path
         inkscape:connector-curvature="0"
         id="path1804-7"
         clip-rule="evenodd"
         d="m 2917.37,14576 1.6641,0 0,3.324 -1.6641,0 0,-3.324 z" /></clipPath><clipPath
       id="clipPath1792-9"
       clipPathUnits="userSpaceOnUse"><path
         inkscape:connector-curvature="0"
         id="path1794-7"
         clip-rule="evenodd"
         d="m 2906.55,14576 0.832,0 0,3.324 -0.832,0 0,-3.324 z" /></clipPath><clipPath
       id="clipPath1782-3"
       clipPathUnits="userSpaceOnUse"><path
         inkscape:connector-curvature="0"
         id="path1784-1"
         clip-rule="evenodd"
         d="m 2904.06,14576 2.4922,0 0,3.324 -2.4922,0 0,-3.324 z" /></clipPath><clipPath
       id="clipPath1772-4"
       clipPathUnits="userSpaceOnUse"><path
         inkscape:connector-curvature="0"
         id="path1774-7"
         d="m 2866.05,14575 99.7969,0 0,35.301 -99.7969,0 0,-35.301 z" /></clipPath><clipPath
       id="clipPath1760-5"
       clipPathUnits="userSpaceOnUse"><path
         inkscape:connector-curvature="0"
         id="path1762-9"
         d="m 2866.05,14575 99.7969,0 0,35.301 -99.7969,0 0,-35.301 z" /></clipPath><clipPath
       id="clipPath1748-2"
       clipPathUnits="userSpaceOnUse"><path
         inkscape:connector-curvature="0"
         id="path1750-1"
         d="m 2866.05,14642.5 99.79,0 0,-99.8 -99.79,0 0,99.8 z" /></clipPath><clipPath
       id="clipPath1742-5"
       clipPathUnits="userSpaceOnUse"><path
         inkscape:connector-curvature="0"
         id="path1744-4"
         d="m 2965.84,14542.7 -99.79,0 0,32.3 99.79,0 0,-32.3 m 0,67.6 -99.79,0 0,32.2 99.79,0 0,-32.2" /></clipPath><clipPath
       clipPathUnits="userSpaceOnUse"
       id="clipPath1742-9"><path
         d="m 2965.84,14542.7 -99.79,0 0,32.3 99.79,0 0,-32.3 m 0,67.6 -99.79,0 0,32.2 99.79,0 0,-32.2"
         id="path1744-7"
         inkscape:connector-curvature="0" /></clipPath><clipPath
       clipPathUnits="userSpaceOnUse"
       id="clipPath1748-3"><path
         d="m 2866.05,14642.5 99.79,0 0,-99.8 -99.79,0 0,99.8 z"
         id="path1750-19"
         inkscape:connector-curvature="0" /></clipPath><clipPath
       clipPathUnits="userSpaceOnUse"
       id="clipPath1760-4"><path
         d="m 2866.05,14575 99.7969,0 0,35.301 -99.7969,0 0,-35.301 z"
         id="path1762-4"
         inkscape:connector-curvature="0" /></clipPath><clipPath
       clipPathUnits="userSpaceOnUse"
       id="clipPath1772-43"><path
         d="m 2866.05,14575 99.7969,0 0,35.301 -99.7969,0 0,-35.301 z"
         id="path1774-2"
         inkscape:connector-curvature="0" /></clipPath><clipPath
       clipPathUnits="userSpaceOnUse"
       id="clipPath1782-8"><path
         d="m 2904.06,14576 2.4922,0 0,3.324 -2.4922,0 0,-3.324 z"
         clip-rule="evenodd"
         id="path1784-19"
         inkscape:connector-curvature="0" /></clipPath><clipPath
       clipPathUnits="userSpaceOnUse"
       id="clipPath1792-97"><path
         d="m 2906.55,14576 0.832,0 0,3.324 -0.832,0 0,-3.324 z"
         clip-rule="evenodd"
         id="path1794-8"
         inkscape:connector-curvature="0" /></clipPath><clipPath
       clipPathUnits="userSpaceOnUse"
       id="clipPath1802-91"><path
         d="m 2917.37,14576 1.6641,0 0,3.324 -1.6641,0 0,-3.324 z"
         clip-rule="evenodd"
         id="path1804-8"
         inkscape:connector-curvature="0" /></clipPath><clipPath
       clipPathUnits="userSpaceOnUse"
       id="clipPath1812-6"><path
         d="m 2919.03,14576 1.6641,0 0,3.324 -1.6641,0 0,-3.324 z"
         clip-rule="evenodd"
         id="path1814-59"
         inkscape:connector-curvature="0" /></clipPath><clipPath
       clipPathUnits="userSpaceOnUse"
       id="clipPath1822-4"><path
         d="m 2866.05,14575 99.7969,0 0,35.301 -99.7969,0 0,-35.301 z"
         id="path1824-5"
         inkscape:connector-curvature="0" /></clipPath><clipPath
       clipPathUnits="userSpaceOnUse"
       id="clipPath1836-5"><path
         d="m 10.2266,14516.6 335.938,0 0,149.672 -335.938,0 0,-149.672 z"
         id="path1838-0"
         inkscape:connector-curvature="0" /></clipPath><clipPath
       id="clipPath1836-8-4"
       clipPathUnits="userSpaceOnUse"><path
         inkscape:connector-curvature="0"
         id="path1838-6-6"
         d="m 10.2266,14516.6 335.938,0 0,149.672 -335.938,0 0,-149.672 z" /></clipPath><clipPath
       id="clipPath1822-1-6"
       clipPathUnits="userSpaceOnUse"><path
         inkscape:connector-curvature="0"
         id="path1824-8-3"
         d="m 2866.05,14575 99.7969,0 0,35.301 -99.7969,0 0,-35.301 z" /></clipPath><clipPath
       id="clipPath1812-1-1"
       clipPathUnits="userSpaceOnUse"><path
         inkscape:connector-curvature="0"
         id="path1814-5-1"
         clip-rule="evenodd"
         d="m 2919.03,14576 1.6641,0 0,3.324 -1.6641,0 0,-3.324 z" /></clipPath><clipPath
       id="clipPath1802-9-2"
       clipPathUnits="userSpaceOnUse"><path
         inkscape:connector-curvature="0"
         id="path1804-7-5"
         clip-rule="evenodd"
         d="m 2917.37,14576 1.6641,0 0,3.324 -1.6641,0 0,-3.324 z" /></clipPath><clipPath
       id="clipPath1792-9-0"
       clipPathUnits="userSpaceOnUse"><path
         inkscape:connector-curvature="0"
         id="path1794-7-8"
         clip-rule="evenodd"
         d="m 2906.55,14576 0.832,0 0,3.324 -0.832,0 0,-3.324 z" /></clipPath><clipPath
       id="clipPath1782-3-0"
       clipPathUnits="userSpaceOnUse"><path
         inkscape:connector-curvature="0"
         id="path1784-1-4"
         clip-rule="evenodd"
         d="m 2904.06,14576 2.4922,0 0,3.324 -2.4922,0 0,-3.324 z" /></clipPath><clipPath
       id="clipPath1772-4-2"
       clipPathUnits="userSpaceOnUse"><path
         inkscape:connector-curvature="0"
         id="path1774-7-4"
         d="m 2866.05,14575 99.7969,0 0,35.301 -99.7969,0 0,-35.301 z" /></clipPath><clipPath
       id="clipPath1760-5-3"
       clipPathUnits="userSpaceOnUse"><path
         inkscape:connector-curvature="0"
         id="path1762-9-7"
         d="m 2866.05,14575 99.7969,0 0,35.301 -99.7969,0 0,-35.301 z" /></clipPath><clipPath
       id="clipPath1748-2-4"
       clipPathUnits="userSpaceOnUse"><path
         inkscape:connector-curvature="0"
         id="path1750-1-5"
         d="m 2866.05,14642.5 99.79,0 0,-99.8 -99.79,0 0,99.8 z" /></clipPath><clipPath
       id="clipPath1742-5-7"
       clipPathUnits="userSpaceOnUse"><path
         inkscape:connector-curvature="0"
         id="path1744-4-4"
         d="m 2965.84,14542.7 -99.79,0 0,32.3 99.79,0 0,-32.3 m 0,67.6 -99.79,0 0,32.2 99.79,0 0,-32.2" /></clipPath><clipPath
       id="clipPath1836-7"
       clipPathUnits="userSpaceOnUse"><path
         inkscape:connector-curvature="0"
         id="path1838-8"
         d="m 10.2266,14516.6 335.938,0 0,149.672 -335.938,0 0,-149.672 z" /></clipPath><clipPath
       id="clipPath1822-9"
       clipPathUnits="userSpaceOnUse"><path
         inkscape:connector-curvature="0"
         id="path1824-2"
         d="m 2866.05,14575 99.7969,0 0,35.301 -99.7969,0 0,-35.301 z" /></clipPath><clipPath
       id="clipPath1812-8"
       clipPathUnits="userSpaceOnUse"><path
         inkscape:connector-curvature="0"
         id="path1814-0"
         clip-rule="evenodd"
         d="m 2919.03,14576 1.6641,0 0,3.324 -1.6641,0 0,-3.324 z" /></clipPath><clipPath
       id="clipPath1802-94"
       clipPathUnits="userSpaceOnUse"><path
         inkscape:connector-curvature="0"
         id="path1804-5"
         clip-rule="evenodd"
         d="m 2917.37,14576 1.6641,0 0,3.324 -1.6641,0 0,-3.324 z" /></clipPath><clipPath
       id="clipPath1792-0"
       clipPathUnits="userSpaceOnUse"><path
         inkscape:connector-curvature="0"
         id="path1794-72"
         clip-rule="evenodd"
         d="m 2906.55,14576 0.832,0 0,3.324 -0.832,0 0,-3.324 z" /></clipPath><clipPath
       id="clipPath1782-0"
       clipPathUnits="userSpaceOnUse"><path
         inkscape:connector-curvature="0"
         id="path1784-3"
         clip-rule="evenodd"
         d="m 2904.06,14576 2.4922,0 0,3.324 -2.4922,0 0,-3.324 z" /></clipPath><clipPath
       id="clipPath1772-42"
       clipPathUnits="userSpaceOnUse"><path
         inkscape:connector-curvature="0"
         id="path1774-79"
         d="m 2866.05,14575 99.7969,0 0,35.301 -99.7969,0 0,-35.301 z" /></clipPath><clipPath
       id="clipPath1760-46"
       clipPathUnits="userSpaceOnUse"><path
         inkscape:connector-curvature="0"
         id="path1762-8"
         d="m 2866.05,14575 99.7969,0 0,35.301 -99.7969,0 0,-35.301 z" /></clipPath><clipPath
       id="clipPath1748-1"
       clipPathUnits="userSpaceOnUse"><path
         inkscape:connector-curvature="0"
         id="path1750-2"
         d="m 2866.05,14642.5 99.79,0 0,-99.8 -99.79,0 0,99.8 z" /></clipPath><clipPath
       id="clipPath1742-7"
       clipPathUnits="userSpaceOnUse"><path
         inkscape:connector-curvature="0"
         id="path1744-9"
         d="m 2965.84,14542.7 -99.79,0 0,32.3 99.79,0 0,-32.3 m 0,67.6 -99.79,0 0,32.2 99.79,0 0,-32.2" /></clipPath></defs><sodipodi:namedview
     pagecolor="#ffffff"
     bordercolor="#666666"
     borderopacity="1"
     objecttolerance="10"
     gridtolerance="10"
     guidetolerance="10"
     inkscape:pageopacity="0"
     inkscape:pageshadow="2"
     inkscape:window-width="1366"
     inkscape:window-height="725"
     id="namedview4"
     showgrid="false"
     showguides="true"
     inkscape:guide-bbox="true"
     inkscape:zoom="2.2174825"
     inkscape:cx="52.616616"
     inkscape:cy="-26.066246"
     inkscape:window-x="0"
     inkscape:window-y="25"
     inkscape:window-maximized="1"
     inkscape:current-layer="g10"
     inkscape:showpageshadow="false" /><g
     id="g10"
     inkscape:groupmode="layer"
     inkscape:label="ink_ext_XXXXXX"
     transform="matrix(1.25,0,0,-1.25,0,34.99993)"><path
       style="fill:#ffffff;fill-opacity:1;stroke:none"
       d="M 14.40625 0.0625 C 13.768957 0.10019359 13.236253 0.43692406 13.09375 0.96875 L 12.53125 3.15625 L 8 1.96875 C 7.0356725 1.7103587 6.078295 2.11629 5.875 2.875 L 5.78125 3.15625 C 5.5779538 3.91496 6.2231737 4.7416088 7.1875 5 L 27.8125 10.53125 C 28.053582 10.595847 28.303196 10.60752 28.53125 10.59375 C 28.645277 10.586865 28.768547 10.587127 28.875 10.5625 C 29.407265 10.439365 29.810441 10.099194 29.9375 9.625 L 30.03125 9.34375 C 30.234549 8.58504 29.589327 7.75839 28.625 7.5 L 24.125 6.28125 L 24.6875 4.0625 C 24.877504 3.3533975 24.338775 2.6164962 23.4375 2.375 L 15.09375 0.125 C 14.868431 0.064625937 14.618681 0.049935469 14.40625 0.0625 z M 15.5 1.65625 L 22.28125 3.46875 L 21.6875 5.625 L 14.9375 3.8125 L 15.5 1.65625 z M 6.71875 11 C 5.7703388 11 4.8631675 11.78026 5 12.71875 L 8 33.28125 C 8.1368338 34.219737 8.7703388 35 9.71875 35 L 25.28125 35 C 26.22966 35 26.863168 34.219738 27 33.28125 L 30 12.71875 C 30.136834 11.78026 29.22966 11 28.28125 11 L 6.71875 11 z "
       transform="matrix(0.8,0,0,-0.8,0,27.999944)"
       id="rect3862-5" /></g></svg>